<?xml version="1.0" standalone="no"?>
<!DOCTYPE svg PUBLIC "-//W3C//DTD SVG 20010904//EN"
 "http://www.w3.org/TR/2001/REC-SVG-20010904/DTD/svg10.dtd">
<svg version="1.0" xmlns="http://www.w3.org/2000/svg"
 width="400.000000pt" height="400.000000pt" viewBox="0 0 400.000000 400.000000"
 preserveAspectRatio="xMidYMid meet">
<metadata>
Created by potrace 1.11, written by Peter Selinger 2001-2013
</metadata>
<g transform="translate(0.000000,400.000000) scale(0.100000,-0.100000)"
fill="#000000" stroke="none">
<path d="M1395 3482 c-39 -8 -43 -25 -39 -215 1 -100 -1 -207 -7 -237 -5 -30
-11 -72 -14 -93 -16 -104 -66 -226 -136 -328 -118 -174 -76 -337 106 -413 50
-21 172 -50 320 -76 136 -24 246 -58 323 -100 45 -24 54 -26 59 -13 3 8 6 74
6 147 1 119 -3 176 -18 276 -11 66 -57 245 -82 315 -74 206 -225 463 -373 633
-73 85 -110 111 -145 104z"/>
<path d="M2596 2959 c-61 -15 -159 -65 -206 -107 l-43 -38 25 -40 c14 -22 40
-68 57 -102 17 -34 33 -62 35 -62 3 0 32 52 72 130 7 14 38 63 68 109 78 118
77 130 -8 110z"/>
<path d="M2211 2953 c-1 -13 30 -71 59 -113 10 -14 36 -61 58 -105 99 -197
114 -357 47 -503 -36 -77 -140 -176 -238 -225 -42 -21 -77 -41 -77 -43 0 -3 4
-3 8 0 5 3 24 8 42 11 86 15 236 92 287 147 12 13 34 48 50 78 23 46 28 69 30
141 1 51 -4 109 -13 145 -23 87 -94 232 -172 348 -38 56 -72 109 -75 117 -3 8
-6 9 -6 2z"/>
<path d="M2860 2705 c-6 -70 -5 -83 5 -73 3 3 5 37 3 74 l-3 69 -5 -70z"/>
<path d="M2254 2703 c-85 -115 -166 -325 -189 -488 -3 -22 -8 -51 -10 -65 -2
-14 -7 -56 -11 -95 l-6 -70 23 20 c13 11 77 71 141 135 173 169 194 217 159
366 -23 97 -68 224 -80 224 -4 0 -16 -12 -27 -27z"/>
<path d="M2850 2606 c0 -22 -37 -131 -61 -177 -108 -214 -310 -368 -614 -468
l-120 -40 75 6 c194 14 385 92 507 206 50 46 140 180 165 242 18 44 31 77 33
85 0 3 4 14 7 25 4 11 9 38 13 60 3 22 8 48 11 58 3 9 1 17 -5 17 -6 0 -11 -6
-11 -14z"/>
<path d="M1555 2083 c-154 -26 -249 -73 -284 -140 -19 -36 -13 -100 12 -141
67 -107 58 -181 -28 -235 -66 -42 -63 -48 12 -26 38 11 79 22 92 25 153 33
338 139 506 289 37 33 80 65 95 70 16 6 31 12 34 16 9 9 -123 75 -204 103 -41
14 -104 28 -140 32 -36 3 -67 7 -70 8 -3 1 -14 1 -25 -1z"/>
<path d="M2120 1892 c-43 -4 -144 -35 -177 -55 -73 -42 -49 -88 82 -159 49
-27 93 -54 97 -61 40 -62 -96 -103 -243 -72 -35 8 -82 20 -105 28 -39 14 -41
14 -72 -13 -18 -15 -32 -30 -32 -33 0 -16 259 -25 355 -12 99 13 165 52 165
96 0 27 -44 63 -129 104 -129 63 -139 84 -58 120 61 27 109 36 186 36 88 1 94
-28 12 -63 l-46 -20 25 -13 c40 -23 66 -18 99 20 37 43 39 69 7 90 -22 15 -73
17 -166 7z"/>
<path d="M1212 1258 c-8 -8 -12 -64 -12 -184 0 -144 3 -174 16 -185 31 -26 49
1 52 79 l3 70 34 0 c34 0 35 -2 62 -74 29 -79 52 -99 81 -70 15 14 14 22 -6
85 l-23 69 26 38 c42 61 26 137 -35 169 -36 19 -180 21 -198 3z m169 -64 c46
-41 10 -94 -63 -94 l-48 0 0 53 0 53 46 3 c32 1 52 -3 65 -15z"/>
<path d="M2511 1256 c-8 -9 -11 -69 -9 -191 3 -156 5 -179 20 -189 36 -22 43
5 44 187 0 95 -4 180 -8 190 -10 21 -31 22 -47 3z"/>
<path d="M1582 1145 c-65 -28 -92 -125 -56 -201 36 -76 135 -84 181 -15 22 33
26 126 7 163 -28 53 -80 74 -132 53z m68 -70 c18 -22 15 -104 -4 -123 -12 -13
-20 -13 -41 -4 -25 11 -30 28 -27 91 2 46 46 68 72 36z"/>
<path d="M1788 1149 c-16 -9 -18 -27 -18 -139 0 -112 2 -130 17 -139 11 -6 24
-6 35 0 15 8 18 24 18 113 0 82 3 106 16 117 11 9 20 10 32 2 14 -8 18 -30 20
-114 2 -82 6 -107 19 -116 11 -9 21 -9 34 -2 17 9 19 23 19 123 0 96 -3 117
-18 136 -20 25 -73 30 -97 10 -10 -9 -19 -8 -37 4 -16 10 -28 12 -40 5z"/>
<path d="M2085 1150 c-44 -17 -60 -48 -60 -120 0 -54 5 -75 21 -96 25 -35 70
-51 96 -35 15 10 18 8 18 -12 0 -46 -50 -65 -70 -26 -16 30 -54 22 -58 -12 -6
-53 78 -87 142 -58 40 19 51 61 51 207 1 122 -1 135 -19 148 -13 9 -24 10 -31
4 -7 -6 -24 -6 -41 -1 -16 4 -38 5 -49 1z m59 -66 c30 -29 15 -134 -18 -134
-40 0 -57 110 -21 136 23 17 20 17 39 -2z"/>
<path d="M2325 1150 c-35 -13 -55 -46 -61 -96 -7 -62 12 -121 49 -148 23 -17
32 -19 57 -9 28 10 30 10 30 -11 0 -44 -50 -63 -70 -26 -6 12 -21 20 -35 20
-21 0 -25 -5 -25 -29 0 -41 40 -71 94 -71 84 1 100 35 101 213 1 127 -1 140
-19 153 -13 9 -24 10 -31 4 -7 -6 -24 -6 -41 -1 -16 4 -38 5 -49 1z m59 -66
c30 -29 15 -134 -18 -134 -23 0 -37 27 -39 75 -1 36 3 50 18 61 23 17 20 17
39 -2z"/>
<path d="M2685 1151 c-54 -16 -85 -64 -85 -132 0 -84 49 -139 124 -139 44 0
98 43 94 74 -4 29 -42 32 -67 7 -12 -12 -27 -21 -34 -21 -18 0 -43 21 -50 43
-6 15 1 17 56 17 77 0 101 14 94 57 -12 73 -67 113 -132 94z m65 -81 c10 -19
8 -20 -40 -20 -48 0 -50 1 -38 20 8 12 24 20 40 20 17 0 31 -8 38 -20z"/>
<path d="M1883 611 c-3 -13 -16 -21 -37 -24 l-31 -4 32 -1 c30 -2 32 -5 36
-44 l4 -43 1 42 2 42 63 4 62 3 -62 2 c-48 2 -63 6 -63 17 0 10 16 15 58 18
l57 3 -58 2 c-51 2 -60 -1 -64 -17z"/>
<path d="M2433 611 c-3 -13 -16 -21 -37 -24 l-31 -4 32 -1 c30 -2 32 -5 36
-44 l4 -43 1 42 2 42 63 4 62 3 -62 2 c-48 2 -63 6 -63 17 0 10 16 15 58 18
l57 3 -58 2 c-51 2 -60 -1 -64 -17z"/>
<path d="M3011 613 c-1 -16 -9 -23 -28 -26 l-28 -4 27 -2 c23 -1 27 -6 30 -38
l3 -38 55 -1 55 -1 -50 6 c-47 6 -50 8 -53 38 -3 31 -2 32 45 36 l48 3 -47 2
c-40 2 -47 5 -51 25 -4 22 -4 22 -6 0z"/>
<path d="M504 605 c-14 -35 3 -45 76 -45 68 0 70 -1 70 -25 0 -24 -2 -25 -69
-25 -38 0 -72 5 -74 10 -3 6 -4 5 -3 -2 2 -9 25 -13 77 -13 l74 0 0 30 0 30
-72 3 c-65 3 -73 5 -73 22 0 18 7 20 69 20 38 0 72 -5 74 -10 3 -6 4 -5 3 2
-2 9 -26 14 -74 16 -58 2 -73 0 -78 -13z"/>
<path d="M2103 613 c13 -3 17 -15 17 -53 0 -38 -4 -50 -17 -53 -10 -3 0 -5 22
-5 22 0 32 2 23 5 -14 3 -18 15 -18 53 0 38 4 50 18 53 9 3 -1 5 -23 5 -22 0
-32 -2 -22 -5z"/>
<path d="M3133 560 c0 -36 2 -50 4 -32 2 17 2 47 0 65 -2 17 -4 3 -4 -33z"/>
<path d="M684 576 c-3 -8 -4 -27 -2 -43 3 -28 3 -28 78 -28 l75 0 0 40 0 40
-73 3 c-56 2 -74 0 -78 -12z m146 -31 l0 -35 -70 0 -70 0 0 35 0 35 70 0 70 0
0 -35z"/>
<path d="M864 548 l1 -43 75 0 75 0 1 40 1 40 -4 -37 -4 -38 -69 0 -69 0 -4
40 -4 40 1 -42z"/>
<path d="M1041 541 l2 -46 6 40 6 40 70 6 70 6 -77 0 -78 0 1 -46z"/>
<path d="M1214 576 c-3 -8 -4 -27 -2 -43 3 -28 4 -28 73 -29 l70 0 -67 3 -68
4 0 34 0 34 73 4 72 3 -73 2 c-55 2 -74 -1 -78 -12z"/>
<path d="M1404 576 c-3 -8 -4 -27 -2 -43 3 -28 3 -28 81 -29 l77 0 -75 3 c-56
3 -75 7 -75 18 0 11 18 15 73 17 64 3 72 5 72 23 0 18 -8 20 -73 23 -56 2 -74
0 -78 -12z m146 -11 c0 -12 -14 -15 -70 -15 -56 0 -70 3 -70 15 0 12 14 15 70
15 56 0 70 -3 70 -15z"/>
<path d="M1644 576 c-3 -8 -4 -27 -2 -43 3 -28 3 -28 78 -28 l75 0 0 40 0 40
-73 3 c-56 2 -74 0 -78 -12z m146 -31 l0 -35 -70 0 -70 0 0 35 0 35 70 0 70 0
0 -35z"/>
<path d="M2196 574 c-3 -9 -5 -30 -5 -47 2 -29 2 -28 8 8 l6 40 65 0 65 0 6
-40 c6 -36 6 -37 8 -8 2 58 -4 63 -79 63 -53 0 -69 -4 -74 -16z"/>
<path d="M2584 576 c-3 -8 -4 -27 -2 -43 3 -28 3 -28 81 -29 l77 0 -75 3 c-56
3 -75 7 -75 18 0 11 18 15 73 17 64 3 72 5 72 23 0 18 -8 20 -73 23 -56 2 -74
0 -78 -12z m146 -11 c0 -12 -14 -15 -70 -15 -56 0 -70 3 -70 15 0 12 14 15 70
15 56 0 70 -3 70 -15z"/>
<path d="M2764 576 c-3 -8 -4 -27 -2 -43 3 -28 4 -28 73 -29 l70 0 -67 3 -68
4 0 34 0 34 73 4 72 3 -73 2 c-55 2 -74 -1 -78 -12z"/>
<path d="M3174 576 c-3 -8 -4 -27 -2 -43 3 -28 3 -28 78 -28 l75 0 0 40 0 40
-73 3 c-56 2 -74 0 -78 -12z m146 -31 l0 -35 -70 0 -70 0 0 35 0 35 70 0 70 0
0 -35z"/>
<path d="M3362 578 c-7 -7 -11 -28 -11 -47 l2 -36 6 40 6 40 65 0 65 0 6 -40
c6 -36 6 -37 8 -8 2 57 -5 63 -73 63 -35 0 -67 -5 -74 -12z"/>
</g>
</svg>
